<svg width="1200" height="800" viewBox="0 0 1200 800" fill="none" xmlns="http://www.w3.org/2000/svg">
<g clip-path="url(#clip0_40_35)">
<path d="M1200 0H0V800H1200V0Z" fill="url(#paint0_linear_40_35)"/>
<mask id="mask0_40_35" style="mask-type:luminance" maskUnits="userSpaceOnUse" x="0" y="0" width="1200" height="800">
<path d="M1200 0H0V800H1200V0Z" fill="white"/>
</mask>
<g mask="url(#mask0_40_35)">
<path d="M1189.88 754.228C1189.66 754.002 1167.41 731.375 1123.02 706.96C1082.06 684.427 1013.32 655.721 918.476 646.93C814.203 637.262 734.17 669.115 656.772 699.917C598.46 723.124 538.163 747.121 469.03 752.06C352.303 760.393 257.016 735.987 187.44 718.164C161.777 711.591 139.615 705.913 121.285 703.154C56.973 693.476 -11.685 711.479 -12.371 711.663L-12.629 710.696C-11.941 710.512 56.913 692.454 121.434 702.166C139.813 704.932 161.999 710.615 187.688 717.196C257.198 735.002 352.395 759.389 468.959 751.062C537.937 746.135 598.162 722.167 656.402 698.989C733.909 668.142 814.047 636.25 918.568 645.934C1013.6 654.744 1082.49 683.519 1123.55 706.107C1168.05 730.592 1190.37 753.304 1190.59 753.531L1189.88 754.228Z" fill="url(#paint1_linear_40_35)"/>
<path d="M1192.37 775.169C1188.46 771.565 1094.69 686.711 919.159 671.675C890.959 669.363 862.899 670.051 835.76 673.715C776.765 681.682 722.624 700.851 670.266 719.388C606.681 741.9 540.932 765.178 468.237 767.014C444.618 767.607 420.211 766.551 393.615 763.778C323.661 756.486 261.239 740.699 211.082 728.014C177.042 719.405 147.644 711.97 123.301 708.869C63.068 701.199 -3.116 716.74 -10.065 719.841L-10.472 718.927C-3.487 715.811 62.999 700.179 123.427 707.877C147.831 710.985 177.256 718.427 211.328 727.044C261.454 739.721 323.837 755.498 393.719 762.783C420.271 765.551 444.637 766.607 468.212 766.013C540.748 764.181 603.499 741.965 669.932 718.444C722.338 699.89 776.529 680.705 835.625 672.724C862.835 669.048 890.968 668.36 919.243 670.678C1095.11 685.742 1189.13 770.82 1193.05 774.434L1192.37 775.169Z" fill="url(#paint2_linear_40_35)"/>
<path d="M1194.84 796.091C1193.91 795.231 1093.77 709.403 919.846 696.42C891.67 694.317 863.626 695.425 836.487 699.71C785.232 707.804 735.7 723.431 687.799 738.544C619.965 759.946 549.895 782.052 475.564 782.054C472.86 782.054 470.159 782.025 467.444 781.965C444.689 781.466 420.63 778.992 393.89 774.403C339.069 764.994 288.415 751.849 243.724 740.253C197.838 728.346 158.209 718.063 125.318 714.583C63.763 708.076 0.978001 724.112 -7.832 728.044L-8.239 727.13C0.613 723.181 63.666 707.053 125.424 713.589C158.389 717.076 198.051 727.368 243.976 739.285C288.648 750.877 339.281 764.015 394.06 773.417C420.75 777.998 444.762 780.467 467.467 780.965C544.667 782.671 617.276 759.746 687.5 737.591C735.436 722.467 785.003 706.827 836.332 698.722C863.55 694.424 891.676 693.316 919.922 695.422C1094.18 708.43 1194.59 794.493 1195.52 795.357L1194.84 796.091Z" fill="url(#paint3_linear_40_35)"/>
<path d="M1197.32 817.012C1193.8 813.762 1165.65 792.596 1116.86 770.467C1073.98 751.018 1005.12 726.676 920.532 721.164C892.039 719.306 864.008 720.834 837.214 725.703C794.926 733.388 752.135 745.517 710.753 757.248C631.797 779.629 550.155 802.771 466.65 796.914C443.844 795.313 420.811 791.535 394.164 785.023C357.958 776.176 323.555 766.513 290.284 757.168C227.254 739.465 172.82 724.176 127.334 720.296C70.017 715.407 9.014 729.727 -5.601 736.247L-6.008 735.333C9.173 728.561 69.125 714.327 127.419 719.3C172.999 723.188 227.476 738.489 290.555 756.206C323.818 765.549 358.213 775.209 394.402 784.053C420.993 790.55 443.973 794.32 466.721 795.916C550.046 801.762 631.608 778.644 710.482 756.285C751.886 744.549 794.702 732.412 837.036 724.719C863.91 719.836 892.027 718.305 920.599 720.166C1005.33 725.687 1074.32 750.072 1117.28 769.556C1166.18 791.741 1194.46 813.009 1198 816.278L1197.32 817.012Z" fill="url(#paint4_linear_40_35)"/>
<path d="M1199.79 837.934C1194.54 833.089 1163.43 812.298 1114.78 791.689C1071.35 773.288 1002.52 750.408 921.218 745.909C892.299 744.31 864.28 746.257 837.942 751.697C806.381 758.218 774.774 766.427 741.311 775.12C651.014 798.577 557.642 822.831 465.856 811.863C443.186 809.155 419.824 803.849 394.436 795.644C382.508 791.79 370.668 787.918 358.938 784.083C274.284 756.407 194.325 730.267 129.348 726.01C73.036 722.319 15.121 736.2 -3.371 744.452L-3.778 743.538C18.55 733.576 77.258 721.599 129.413 725.013C194.516 729.279 274.533 755.438 359.249 783.134C370.978 786.968 382.817 790.839 394.743 794.694C420.069 802.879 443.369 808.171 465.974 810.872C557.579 821.814 650.853 797.586 741.059 774.153C774.534 765.458 806.153 757.244 837.738 750.719C864.161 745.26 892.266 743.302 921.272 744.911C1002.72 749.418 1071.67 772.336 1115.17 790.768C1163.94 811.429 1195.19 832.324 1200.47 837.2L1199.79 837.934Z" fill="url(#paint5_linear_40_35)"/>
<path d="M1202.27 858.856C1195.52 852.627 1161.28 832.118 1112.71 812.941C1068.77 795.593 1000.01 774.175 921.904 770.654C892.453 769.33 864.45 771.694 838.669 777.691C820.787 781.85 802.664 786.349 783.477 791.112C682.809 816.103 568.709 844.429 465.062 826.812C441.901 822.875 418.888 816.153 394.706 806.26C305.43 769.737 211.736 735.429 131.362 731.723C80.979 729.407 25.489 740.774 -1.14 752.655L-1.547 751.741C25.187 739.814 80.869 728.387 131.408 730.725C211.934 734.437 305.725 768.778 395.085 805.334C419.197 815.199 442.142 821.901 465.229 825.825C568.67 843.405 682.663 815.107 783.235 790.141C802.426 785.376 820.552 780.876 838.442 776.715C864.313 770.697 892.411 768.319 921.949 769.655C1000.19 773.181 1069.07 794.634 1113.07 812.01C1161.76 831.235 1196.15 851.848 1202.94 858.12L1202.27 858.856Z" fill="url(#paint6_linear_40_35)"/>
<path d="M1204.74 879.778C1197.83 873.4 1163.13 853.489 1110.63 834.223C1066.24 817.933 997.581 797.974 922.59 795.399C892.521 794.367 864.528 797.154 839.399 803.684C763.143 823.5 657.226 851.024 556.59 851.026C524.929 851.027 493.798 848.303 464.269 841.758C440.745 836.544 417.432 828.172 394.979 816.873C294.1 766.108 206.084 739.382 133.377 737.437C81.37 736.045 29.469 748.197 1.092 760.859L0.685 759.945C29.165 747.239 81.256 735.048 133.404 736.437C206.259 738.386 294.417 765.149 395.428 815.981C417.807 827.242 441.041 835.586 464.485 840.782C587.639 868.075 738.994 828.743 839.147 802.716C864.37 796.161 892.451 793.368 922.626 794.4C997.748 796.98 1066.51 816.97 1110.97 833.285C1163.61 852.6 1198.46 872.619 1205.42 879.045L1204.74 879.778Z" fill="url(#paint7_linear_40_35)"/>
<path d="M1207.21 900.7C1199.18 893.281 1162.26 873.796 1108.55 855.535C1063.76 840.304 995.25 821.802 923.277 820.143C892.48 819.433 864.508 822.641 840.127 829.677C776.862 847.932 713.468 860.762 656.797 866.781C581.861 874.739 516.817 871.349 463.474 856.704C439.139 850.022 416.185 840.191 395.251 827.484C332.529 789.411 236.533 743.875 135.392 743.15C90.461 742.828 39.87 752.757 3.323 769.063L2.916 768.149C39.585 751.789 90.354 741.806 135.399 742.15C236.768 742.877 332.941 788.491 395.77 826.629C416.626 839.289 439.494 849.083 463.739 855.739C516.961 870.352 581.879 873.731 656.692 865.787C713.305 859.774 776.64 846.956 839.85 828.717C864.329 821.653 892.409 818.435 923.301 819.144C995.4 820.805 1064.01 839.335 1108.87 854.588C1163.31 873.099 1199.55 892.267 1207.89 899.966L1207.21 900.7Z" fill="url(#paint8_linear_40_35)"/>
<path d="M1209.69 921.622C1188.95 902.477 1048.46 846.264 923.964 844.889C892.369 844.544 864.394 848.167 840.857 855.67C785.071 873.453 719.973 885.673 657.553 890.078C582.78 895.355 515.396 888.981 462.681 871.647C437.474 863.36 414.88 852.07 395.525 838.09C315.699 780.438 225.745 748.834 141.727 748.834C140.282 748.834 138.849 748.844 137.408 748.862C92.12 749.449 45.294 759.536 5.556 777.265L5.149 776.351C45.009 758.568 91.975 748.45 137.396 747.862C222.859 746.77 314.74 778.51 396.112 837.279C415.383 851.198 437.885 862.441 462.994 870.697C574.33 907.306 732.846 889.049 840.553 854.715C864.194 847.18 892.256 843.526 923.977 843.887C1048.71 845.265 1189.55 901.674 1210.37 920.886L1209.69 921.622Z" fill="url(#paint9_linear_40_35)"/>
<path d="M1212.16 942.544C1197.68 929.176 1133.25 903.604 1060.41 886.845C1007.73 874.722 909.245 857.931 841.586 881.661C779 903.612 691.427 915.807 613.027 913.498C568.469 912.183 527.842 906.491 492.273 896.582C452.61 885.532 420.152 869.422 395.8 848.696C342.662 803.471 280.658 773.034 216.492 760.675C182.391 754.107 147.832 752.673 113.776 756.418C77.788 760.374 42.128 770.148 7.785 785.471L7.378 784.557C41.815 769.193 77.576 759.391 113.667 755.424C147.822 751.67 182.483 753.107 216.682 759.692C281.017 772.085 343.18 802.598 396.449 847.934C420.69 868.565 453.02 884.608 492.542 895.619C528.033 905.507 568.58 911.185 613.058 912.498C691.327 914.813 778.776 902.631 841.255 880.718C909.154 856.904 1007.85 873.724 1060.63 885.87C1133.62 902.665 1198.26 928.354 1212.84 941.809L1212.16 942.544Z" fill="url(#paint10_linear_40_35)"/>
<path d="M1196.24 909.581C1059.55 783.405 807.064 866.259 650.778 873.543C408.235 884.847 233.675 644.29 -8.679 752.417V952.54H1196.24V909.581Z" fill="url(#paint11_linear_40_35)"/>
<path d="M1200.47 872.844C1191.35 868.005 1181.92 863.757 1172.29 860.033C1161.97 856.043 1151.43 852.651 1140.76 849.742C1129.02 846.54 1117.12 843.921 1105.15 841.742C1091.89 839.328 1078.54 837.452 1065.14 835.965C1050.23 834.311 1035.28 833.138 1020.3 832.304C1003.62 831.375 986.921 830.868 970.216 830.652C951.629 830.411 933.038 830.532 914.453 830.9C893.825 831.308 873.202 832.022 852.591 832.941C829.784 833.958 806.989 835.229 784.204 836.668C759.08 838.255 733.969 840.047 708.869 841.973C685.737 843.748 662.552 844.863 639.349 844.93C620.159 844.986 600.956 844.347 581.832 842.708C566.235 841.372 550.683 839.372 535.306 836.426C522.779 834.026 510.359 830.998 498.215 827.088C488.572 823.984 479.096 820.321 469.973 815.907C462.72 812.398 455.685 808.411 449.061 803.818C443.968 800.286 439.113 796.393 434.665 792.074C431.328 788.834 428.215 785.352 425.462 781.601C423.607 779.073 421.907 776.42 420.473 773.629C419.729 772.181 419.033 770.69 418.511 769.146C418.446 768.953 418.383 768.76 418.326 768.565C419.178 769.818 420.147 770.996 421.129 772.148C423.886 775.383 426.921 778.383 430.098 781.205C435.101 785.65 440.492 789.654 446.121 793.269C453.751 798.169 461.832 802.354 470.17 805.909C480.732 810.412 491.714 813.903 502.882 816.551C516.885 819.871 531.186 821.869 545.539 822.846C563.178 824.046 580.906 823.709 598.52 822.261C620.327 820.468 641.977 816.975 663.348 812.314C689.347 806.642 714.954 799.236 740.14 790.665C766.255 781.778 791.954 771.671 817.102 760.334C839.954 750.033 862.357 738.74 884.262 726.555C905.114 714.956 925.516 702.548 945.438 689.415C964.265 677.004 982.665 663.945 1000.62 650.3C1017.19 637.706 1033.38 624.614 1049.18 611.062C1063.63 598.666 1077.75 585.885 1091.52 572.743C1103.62 561.203 1115.45 549.384 1126.99 537.292C1136.83 526.993 1146.45 516.496 1155.85 505.795C1163.26 497.347 1170.54 488.773 1177.63 480.054C1182.61 473.937 1187.51 467.751 1192.28 461.472C1194.77 458.192 1197.23 454.889 1199.63 451.535C1199.92 451.126 1200.21 450.717 1200.49 450.305L1200.47 872.844Z" fill="url(#paint12_linear_40_35)"/>
<path d="M-8.679 590.762C132.684 574.112 275.234 620.117 391.372 698.748C521.449 786.817 668.517 793.265 793.079 689.721C731.073 795.567 533.469 820.267 433.459 764.347C380.894 734.956 339.566 688.674 287.648 657.924C198.049 604.857 93.648 593.972 -8.679 600.592V590.762Z" fill="url(#paint13_linear_40_35)"/>
<path d="M-2.295 91.9521C132.675 35.9601 293.413 23.7771 435.832 51.5031C607.712 84.9641 773.781 156.59 952.472 129.966C1031.2 118.236 1128.65 88.2471 1202.3 135.797V-39.6699H-2.295V91.9521Z" fill="url(#paint14_linear_40_35)"/>
<path d="M829.615 135.641C807.815 143.61 784.146 148.584 760.324 151.775C734.831 155.19 708.832 156.554 682.949 156.143C658.511 155.754 633.985 153.813 610.172 149.608C580.497 144.368 551.486 137.204 522.744 129.64C493.944 122.061 465.352 114.033 436.338 106.917C407.567 99.8611 378.347 93.8941 348.665 89.4021C318.993 84.9111 288.926 81.8361 258.712 80.3881C228.604 78.9451 198.344 79.1221 168.29 81.1441C138.809 83.1271 109.408 86.8091 80.833 92.6301C54.566 97.9811 28.706 105.464 6.166 117.062C0.716001 119.866 -4.52 122.905 -9.476 126.183C25.092 121.734 60.18 119.578 95.252 119.626C130.339 119.674 165.365 121.97 199.953 126.363C233.851 130.669 267.7 135.976 300.041 144.871C328.699 152.753 355.876 163.293 382.611 174.25C409.312 185.193 435.691 196.62 463.158 206.473C490.011 216.105 518.038 224.215 547.348 228.48C573.962 232.352 601.344 233.131 628.311 231.161C655.392 229.182 682.136 224.428 707.467 216.981C732.626 209.584 756.444 199.496 777.442 186.727C787.354 180.699 796.244 173.99 805.019 167.066C813.154 160.647 821.912 153.987 827.119 145.937C829.146 142.802 830.724 139.139 829.615 135.641Z" fill="url(#paint15_linear_40_35)"/>
<path d="M1274.22 355.751C1160.26 329.19 1051.59 276.675 959.97 203.883C947.334 193.844 934.793 183.244 922.665 172.993C899.345 153.281 875.23 132.897 849.438 115.668C803.643 85.0782 759.394 69.8882 717.921 70.4672C694.064 70.8102 670.358 76.4362 647.433 81.8772C637.225 84.2992 626.669 86.8052 616.225 88.8152C556.602 100.295 493.308 96.1062 433.186 76.7042C373.068 57.3012 319.266 23.7002 277.6 -20.4668L278.328 -21.1538C319.879 22.8912 373.535 56.4012 433.495 75.7522C493.456 95.1032 556.577 99.2802 616.037 87.8332C626.46 85.8272 637.005 83.3242 647.203 80.9042C670.181 75.4512 693.941 69.8132 717.908 69.4672C759.604 68.8852 804.029 84.1312 849.993 114.837C875.832 132.098 899.969 152.5 923.31 172.23C935.432 182.477 947.967 193.072 960.59 203.101C1052.1 275.802 1160.63 328.251 1274.45 354.779L1274.22 355.751Z" fill="url(#paint16_linear_40_35)"/>
<path d="M1274.51 340.043C1160.38 311.81 1051.76 260.579 960.379 191.889C947.73 182.374 935.156 172.341 922.998 162.638C908.394 150.985 893.295 138.935 877.986 127.725C867.669 120.171 858.156 113.652 848.906 107.793C802.907 78.652 758.693 64.09 717.452 64.504C693.871 64.741 670.426 69.892 647.753 74.874C637.396 77.15 626.686 79.503 616.095 81.359C559.334 91.297 499.244 87.219 442.319 69.569C412.077 60.195 382.485 46.932 354.363 30.146C326.321 13.409 300.823 -6.04602 278.573 -27.678L279.27 -28.395C301.463 -6.81602 326.901 12.591 354.875 29.288C382.928 46.033 412.448 59.264 442.614 68.614C499.389 86.218 559.318 90.284 615.921 80.374C626.49 78.522 637.189 76.171 647.537 73.897C670.26 68.905 693.757 63.742 717.441 63.504C758.902 63.083 803.276 77.702 849.44 106.948C858.709 112.819 868.24 119.351 878.576 126.918C893.901 138.14 909.01 150.196 923.62 161.856C935.773 171.554 948.341 181.583 960.979 191.089C1052.25 259.698 1160.75 310.87 1274.75 339.071L1274.51 340.043Z" fill="url(#paint17_linear_40_35)"/>
<path d="M1274.8 324.335C1160.22 294.323 1051.64 244.377 960.791 179.897C948.148 170.913 935.564 161.455 923.395 152.308C908.542 141.143 893.182 129.598 877.645 118.867C867.266 111.7 857.692 105.503 848.374 99.9222C802.171 72.2302 757.976 58.2902 716.981 58.5442C693.699 58.6772 670.538 63.3562 648.139 67.8812C637.61 70.0082 626.722 72.2082 615.963 73.9062C559.212 82.8462 499.497 78.0032 443.272 59.8982C414.069 50.5022 384.661 37.1472 355.864 20.2052C328.313 3.99521 301.923 -15.0548 279.548 -34.8858L280.211 -35.6338C302.539 -15.8438 328.875 3.16621 356.371 19.3442C385.105 36.2482 414.446 49.5732 443.579 58.9472C499.655 77.0042 559.21 81.8372 615.808 72.9192C626.546 71.2242 637.423 69.0262 647.941 66.9012C670.386 62.3672 693.596 57.6782 716.975 57.5452C758.19 57.2822 802.527 71.2772 848.888 99.0652C858.224 104.658 867.817 110.866 878.213 118.045C893.767 128.788 909.134 140.339 923.995 151.51C936.159 160.653 948.736 170.107 961.369 179.083C1052.12 243.494 1160.59 293.388 1275.05 323.369L1274.8 324.335Z" fill="url(#paint18_linear_40_35)"/>
<path d="M1275.08 308.626C1159.66 276.681 1051.12 228.02 961.201 167.903C948.591 159.457 936.022 150.581 923.867 141.997C908.739 131.313 893.096 120.265 877.304 110.004C866.847 103.212 857.21 97.338 847.842 92.045C801.439 65.801 757.272 52.554 716.511 52.58C693.551 52.61 670.698 56.821 648.596 60.893C637.872 62.869 626.783 64.912 615.832 66.449C559.087 74.385 499.745 68.775 444.226 50.224C416.184 40.864 386.96 27.418 357.366 10.261C330.083 -5.55698 303.512 -23.662 280.525 -42.096L281.151 -42.876C304.099 -24.473 330.627 -6.39698 357.868 9.39602C387.403 26.52 416.564 39.938 444.542 49.276C499.918 67.778 559.102 73.375 615.693 65.459C626.622 63.925 637.701 61.884 648.415 59.91C670.56 55.83 693.459 51.611 716.509 51.58C716.597 51.58 716.688 51.58 716.775 51.58C757.618 51.58 801.877 64.9 848.335 91.175C857.721 96.477 867.375 102.362 877.85 109.165C893.658 119.437 909.309 130.49 924.445 141.18C936.594 149.761 949.158 158.633 961.758 167.072C1051.59 227.131 1160.03 275.746 1275.35 307.662L1275.08 308.626Z" fill="url(#paint19_linear_40_35)"/>
<path d="M1275.37 292.917C1156.85 258.324 1051.28 212.228 961.614 155.909C949.062 148.008 936.536 139.72 924.423 131.705C908.993 121.495 893.038 110.938 876.966 101.142C866.436 94.7301 856.737 89.1791 847.313 84.1711C800.706 59.3741 756.54 46.7391 716.04 46.6191C715.831 46.6191 715.619 46.6181 715.409 46.6181C693.013 46.6181 670.713 50.3291 649.138 53.9191C638.191 55.7411 626.871 57.6251 615.7 58.9941C558.956 65.9191 499.993 59.5401 445.179 40.5521C418.081 31.1761 389.848 18.0151 358.867 0.317081C332.26 -14.8809 305.508 -32.0399 281.503 -49.3059L282.087 -50.1179C306.064 -32.8729 332.786 -15.7329 359.363 -0.551918C390.29 17.1151 418.467 30.2511 445.506 39.6061C500.177 58.5461 558.988 64.9051 615.579 58.0011C626.728 56.6331 638.037 54.7511 648.974 52.9321C670.79 49.3021 693.329 45.5361 716.043 45.6181C756.706 45.7391 801.029 58.4131 847.78 83.2881C857.221 88.3051 866.938 93.8661 877.484 100.288C893.573 110.094 909.536 120.656 924.973 130.871C937.082 138.883 949.603 147.168 962.145 155.062C1051.74 211.332 1157.21 257.389 1275.65 291.956L1275.37 292.917Z" fill="url(#paint20_linear_40_35)"/>
<path d="M1275.66 277.208C1154.74 240.055 1049.22 195.209 962.026 143.915C949.575 136.569 937.132 128.881 925.1 121.445C909.329 111.699 893.021 101.622 876.626 92.2811C866.026 86.2481 856.265 81.0201 846.782 76.2971C799.976 52.9461 755.83 40.9541 715.57 40.6561C693.316 40.4791 671.196 43.7771 649.776 46.9571C638.574 48.6211 626.991 50.3411 615.569 51.5381C558.828 57.4411 500.237 50.2981 446.133 30.8781C420.241 21.5981 392.989 8.72712 360.37 -9.62688C335.662 -23.5279 309.457 -39.3039 282.485 -56.5159L283.023 -57.3589C309.98 -40.1579 336.168 -24.3919 360.86 -10.4989C393.429 7.82611 420.632 20.6751 446.47 29.9361C500.434 49.3051 558.871 56.4331 615.465 50.5431C626.865 49.3481 638.438 47.6291 649.63 45.9671C671.089 42.7811 693.293 39.4731 715.578 39.6551C755.991 39.9551 800.285 51.9811 847.228 75.4011C856.727 80.1321 866.504 85.3691 877.12 91.4111C893.53 100.761 909.847 110.843 925.625 120.594C937.653 128.027 950.092 135.713 962.533 143.052C1049.66 194.306 1155.1 239.121 1275.95 276.251L1275.66 277.208Z" fill="url(#paint21_linear_40_35)"/>
<path d="M1275.94 261.5C1147.5 220.021 1047.88 178.847 962.44 131.921C950.145 125.147 937.842 118.072 925.945 111.23C909.778 101.933 893.06 92.3191 876.287 83.4201C865.624 77.7691 855.8 72.8631 846.253 68.4231C798.589 46.2091 755.689 35.1761 715.102 34.6941C693.304 34.4281 671.564 37.2681 650.539 40.0131C639.041 41.5141 627.152 43.0661 615.438 44.0821C558.696 48.9601 500.481 41.0501 447.087 21.2061C416.072 9.6981 386.605 -5.8639 361.872 -19.5689C346.082 -28.3179 330.467 -37.1689 315.366 -45.7279C304.119 -52.1029 293.495 -58.1239 283.469 -63.7249L283.956 -64.5979C293.985 -58.9959 304.61 -52.9739 315.858 -46.5979C330.957 -38.0399 346.57 -29.1899 362.356 -20.4439C387.057 -6.7569 416.482 8.7831 447.435 20.2681C500.693 40.0611 558.758 47.9491 615.351 43.0861C627.043 42.0711 638.922 40.5211 650.409 39.0211C671.469 36.2721 693.248 33.4401 715.113 33.6941C755.845 34.1781 798.88 45.2411 846.674 67.5161C856.237 71.9641 866.076 76.8771 876.755 82.5361C893.543 91.4431 910.269 101.061 926.443 110.363C938.336 117.202 950.634 124.275 962.921 131.045C1048.3 177.939 1147.86 219.089 1276.25 260.548L1275.94 261.5Z" fill="url(#paint22_linear_40_35)"/>
<path d="M1276.23 245.79C1177.81 212.438 1063.62 171.402 962.852 119.926C950.781 113.736 938.686 107.289 926.989 101.055C910.36 92.1921 893.165 83.0271 875.948 74.5571C865.221 69.2861 855.335 64.7031 845.723 60.5471C797.862 39.8001 754.981 29.3931 714.63 28.7321C693.291 28.3781 672.018 30.7721 651.433 33.0891C639.596 34.4211 627.356 35.7981 615.306 36.6261C558.563 40.4721 500.724 31.7931 448.041 11.5331C418.678 0.260081 390.114 -14.9249 363.374 -29.5129C333.888 -45.5969 307.597 -59.8169 284.455 -70.9359L284.888 -71.8369C308.052 -60.7069 334.355 -46.4819 363.853 -30.3909C390.564 -15.8189 419.094 -0.651917 448.4 10.5991C500.949 30.8071 558.638 39.4651 615.239 35.6281C627.267 34.8021 639.496 33.4261 651.322 32.0951C671.938 29.7751 693.254 27.3791 714.648 27.7311C755.132 28.3941 798.138 38.8281 846.122 59.6291C855.748 63.7921 865.649 68.3821 876.391 73.6601C893.622 82.1371 910.825 91.3061 927.46 100.172C939.154 106.405 951.246 112.85 963.31 119.036C1064.02 170.482 1178.17 211.502 1276.55 244.843L1276.23 245.79Z" fill="url(#paint23_linear_40_35)"/>
<path d="M1276.52 230.081L1258.69 223.754C1159.2 188.46 1056.33 151.964 963.266 107.932C951.507 102.345 939.708 96.543 928.298 90.932C911.12 82.485 893.359 73.751 875.609 65.695C864.821 60.805 854.872 56.546 845.194 52.672C797.141 33.39 754.28 23.6091 714.159 22.7701C693.368 22.3271 672.59 24.293 652.502 26.192C640.267 27.348 627.616 28.544 615.173 29.171C558.426 31.97 500.963 22.528 448.993 1.86005C421.341 -9.11895 394.525 -23.526 368.591 -37.46L364.875 -39.456C343.539 -50.911 312.092 -67.385 285.441 -78.148L285.816 -79.075C312.512 -68.294 343.992 -51.803 365.348 -40.337L369.065 -38.341C394.974 -24.421 421.765 -10.027 449.363 0.930046C501.201 21.547 558.522 30.966 615.124 28.172C627.545 27.547 640.185 26.352 652.408 25.196C672.524 23.295 693.329 21.3301 714.182 21.7701C754.424 22.6121 797.401 32.417 845.567 51.744C855.258 55.623 865.22 59.889 876.023 64.785C893.788 72.848 911.556 81.585 928.741 90.035C940.148 95.644 951.944 101.445 963.696 107.029C1056.72 151.039 1159.56 187.527 1259.02 222.812L1276.85 229.139L1276.52 230.081Z" fill="url(#paint24_linear_40_35)"/>
<path d="M1276.8 214.371C1246.49 203.102 1215.37 191.902 1185.27 181.071C1111.11 154.38 1034.42 126.779 963.679 95.937C952.355 90.976 940.976 85.84 929.972 80.874C912.127 72.821 893.675 64.494 875.272 56.832C864.42 52.321 854.408 48.384 844.665 44.796C796.425 26.979 753.583 17.824 713.69 16.807C693.493 16.288 673.303 17.832 653.779 19.325C641.078 20.297 627.946 21.301 615.042 21.713C558.286 23.47 501.2 13.255 449.947 -7.81402C425.921 -17.672 402.479 -30.171 379.809 -42.259C375.332 -44.646 370.856 -47.032 366.376 -49.4C333.726 -66.65 307.576 -78.413 286.43 -85.362L286.743 -86.312C307.942 -79.345 334.144 -67.56 366.844 -50.284C371.325 -47.917 375.802 -45.53 380.28 -43.142C402.928 -31.066 426.347 -18.579 450.327 -8.73901C501.452 12.277 558.398 22.464 615.01 20.714C627.892 20.303 641.013 19.3 653.703 18.329C673.252 16.833 693.467 15.289 713.716 15.808C753.72 16.828 796.667 26.003 845.011 43.858C854.767 47.451 864.791 51.393 875.657 55.909C894.074 63.577 912.533 71.907 930.384 79.963C941.386 84.928 952.762 90.062 964.08 95.021C1034.79 125.85 1111.46 153.445 1185.61 180.131C1215.71 190.963 1246.83 202.164 1277.15 213.435L1276.8 214.371Z" fill="url(#paint25_linear_40_35)"/>
<path d="M1277.09 198.662C1228.07 179.612 1177.35 161.703 1128.3 144.384C1073.64 125.084 1017.12 105.127 964.094 83.9411C953.365 79.6321 942.57 75.1891 932.129 70.8911C913.457 63.2061 894.151 55.2592 874.934 47.9702C864.012 43.8362 853.938 40.2211 844.136 36.9211C795.717 20.5701 752.894 12.0411 713.219 10.8461C693.71 10.2551 674.194 11.3961 655.317 12.5011C642.065 13.2771 628.36 14.0791 614.909 14.2581C557.334 14.9631 502.158 4.28015 450.9 -17.4879C429.739 -26.4569 409.001 -37.5129 388.946 -48.2059C382.049 -51.8829 374.918 -55.6839 367.878 -59.3439C335.983 -75.9199 308.914 -87.1019 287.42 -92.5789L287.667 -93.5479C309.234 -88.0519 336.376 -76.8429 368.338 -60.2319C375.383 -56.5699 382.517 -52.7669 389.415 -49.0889C409.451 -38.4069 430.169 -27.3619 451.29 -18.4089C502.42 3.30414 557.474 13.9741 614.895 13.2571C628.324 13.0791 642.016 12.2771 655.258 11.5021C674.154 10.3951 693.696 9.25315 713.248 9.84515C753.023 11.0431 795.941 19.5891 844.454 35.9721C854.267 39.2761 864.353 42.8941 875.287 47.0331C894.517 54.3271 913.831 62.2771 932.508 69.9651C942.946 74.2621 953.741 78.7051 964.465 83.0121C1017.47 104.191 1073.98 124.144 1128.63 143.441C1177.69 160.762 1228.42 178.674 1277.45 197.73L1277.09 198.662Z" fill="url(#paint26_linear_40_35)"/>
<path d="M1277.37 182.952C1213.48 157.016 1146.76 134.487 1082.24 112.701C1043.23 99.5282 1002.89 85.9072 964.508 71.9452C954.638 68.3352 944.69 64.6272 935.07 61.0412C915.315 53.6772 894.888 46.0622 874.597 39.1072C863.623 35.3532 853.487 32.0622 843.608 29.0452C795.023 14.1602 752.218 6.25619 712.749 4.88319C694.039 4.22919 675.303 4.99019 657.183 5.72819C643.27 6.29419 628.883 6.88519 614.776 6.80219C557.199 6.42219 502.385 -5.00381 451.854 -27.1608C433.017 -35.4058 414.492 -45.3338 396.578 -54.9358C387.688 -59.7008 378.496 -64.6268 369.38 -69.2868C337.602 -85.5298 310.36 -95.7938 288.413 -99.7958L288.593 -100.779C310.636 -96.7598 337.97 -86.4638 369.836 -70.1768C378.96 -65.5128 388.157 -60.5838 397.051 -55.8168C414.948 -46.2238 433.455 -36.3048 452.257 -28.0758C502.66 -5.97481 557.343 5.42319 614.782 5.80119C628.863 5.88019 643.24 5.29419 657.141 4.72819C675.281 3.99019 694.037 3.22719 712.783 3.88319C752.342 5.25919 795.23 13.1762 843.899 28.0882C853.789 31.1082 863.936 34.4022 874.921 38.1602C895.225 45.1202 915.658 52.7372 935.419 60.1032C945.038 63.6882 954.984 67.3962 964.851 71.0052C1003.23 84.9632 1043.56 98.5822 1082.56 111.753C1147.09 133.544 1213.82 156.078 1277.75 182.025L1277.37 182.952Z" fill="url(#paint27_linear_40_35)"/>
<path d="M1277.66 167.242C1201.65 135.054 1121.48 109.728 1043.94 85.235C1017.86 76.997 990.893 68.478 964.922 59.948C956.289 57.095 947.705 54.222 939.144 51.355C917.934 44.255 896 36.911 874.26 30.242C863.232 26.866 853.032 23.898 843.079 21.168C794.337 7.747 751.552 0.46999 712.278 -1.07901C694.515 -1.78401 676.706 -1.375 659.481 -0.979004C644.764 -0.642004 629.545 -0.292006 614.644 -0.656006C557.059 -2.12501 502.609 -14.297 452.807 -36.834C435.892 -44.475 419.215 -53.498 403.086 -62.224C392.58 -67.908 381.715 -73.786 370.882 -79.23C339.571 -94.964 311.397 -104.572 289.405 -107.016L289.515 -108.01C311.623 -105.553 339.914 -95.91 371.33 -80.124C382.177 -74.673 393.048 -68.792 403.561 -63.104C419.674 -54.386 436.336 -45.372 453.218 -37.746C502.898 -15.265 557.217 -3.12301 614.668 -1.65701C629.544 -1.29101 644.751 -1.64201 659.458 -1.98001C676.696 -2.37601 694.522 -2.78701 712.316 -2.07901C751.668 -0.52601 794.527 6.76199 843.343 20.203C853.305 22.935 863.514 25.907 874.552 29.286C896.305 35.959 918.244 43.305 939.461 50.408C948.021 53.274 956.605 56.147 965.235 58.999C991.198 67.527 1018.16 76.045 1044.24 84.282C1121.8 108.782 1202 134.116 1278.05 166.322L1277.66 167.242Z" fill="url(#paint28_linear_40_35)"/>
<path d="M1277.95 151.532C1191.94 113.568 1100.15 87.0162 1011.38 61.3392C996.233 56.9572 980.568 52.4262 965.338 47.9522C958.566 45.9502 951.821 43.9412 945.092 41.9382C921.809 35.0052 897.732 27.8362 873.923 21.3772C862.867 18.3852 852.606 15.7402 842.551 13.2902C793.679 1.33718 750.912 -5.31282 711.807 -7.04182C695.176 -7.78082 678.482 -7.68782 662.337 -7.59882C646.629 -7.51182 630.389 -7.42182 614.511 -8.11382C556.915 -10.6818 502.831 -23.5998 453.76 -46.5078C438.46 -53.6378 423.342 -61.9198 408.722 -69.9288C396.892 -76.4088 384.659 -83.1098 372.384 -89.1738C350.529 -99.9678 318.564 -113.078 290.398 -114.238L290.439 -115.237C318.78 -114.07 350.884 -100.907 372.827 -90.0698C385.121 -83.9968 397.364 -77.2908 409.202 -70.8058C423.808 -62.8048 438.912 -54.5308 454.183 -47.4138C503.135 -24.5618 557.092 -11.6748 614.556 -9.11182C630.41 -8.42082 646.639 -8.50982 662.333 -8.59782C678.49 -8.68682 695.197 -8.77982 711.853 -8.03982C751.024 -6.30882 793.854 0.351183 842.79 12.3192C852.851 14.7712 863.122 17.4182 874.186 20.4132C898.006 26.8742 922.089 34.0452 945.379 40.9802C952.107 42.9832 958.852 44.9922 965.621 46.9932C980.849 51.4672 996.513 55.9972 1011.66 60.3792C1100.46 86.0662 1192.29 112.627 1278.35 150.618L1277.95 151.532Z" fill="url(#paint29_linear_40_35)"/>
<path d="M1278.23 135.822C1183.9 92.4562 1081.9 66.0392 983.257 40.4922C977.407 38.9772 971.572 37.4662 965.752 35.9542L954.562 33.0252C928.046 26.0812 900.627 18.8992 873.587 12.5122C862.497 9.89921 852.172 7.57621 842.023 5.41321C793.056 -5.07079 750.309 -11.0958 711.337 -13.0038C696.101 -13.7538 680.785 -13.9288 665.974 -14.0988C649.02 -14.2928 631.488 -14.4948 614.379 -15.5698C556.773 -19.2478 503.054 -32.9108 454.714 -56.1808C440.791 -62.8728 427.008 -70.5358 413.679 -77.9468C400.755 -85.1328 387.39 -92.5628 373.886 -99.1168C351.988 -109.743 319.901 -122.238 291.39 -121.463L291.363 -122.463C320.059 -123.262 352.324 -110.693 374.322 -100.017C387.852 -93.4508 401.228 -86.0138 414.165 -78.8208C427.481 -71.4178 441.25 -63.7618 455.147 -57.0828C503.371 -33.8688 556.965 -20.2378 614.441 -16.5688C631.524 -15.4948 649.043 -15.2948 665.984 -15.0998C680.805 -14.9298 696.13 -14.7538 711.385 -14.0038C750.411 -12.0918 793.211 -6.06079 842.231 4.43421C852.387 6.60021 862.719 8.92321 873.816 11.5382C900.869 17.9292 928.293 25.1112 954.814 32.0572L966.004 34.9862C971.821 36.4972 977.657 38.0082 983.507 39.5232C1082.19 65.0822 1184.24 91.5102 1278.65 134.913L1278.23 135.822Z" fill="url(#paint30_linear_40_35)"/>
<path d="M1278.52 120.112C1177.34 71.7092 1065.15 46.3392 966.169 23.9562C933.127 16.4332 903.33 9.71216 873.252 3.64716C862.149 1.41416 851.763 -0.584844 841.496 -2.46484C792.498 -11.4768 749.769 -16.8738 710.867 -18.9658C697.391 -19.6928 683.823 -20.0708 670.701 -20.4368C652.137 -20.9538 632.941 -21.4888 614.247 -23.0278C556.632 -27.8218 503.278 -42.2309 455.667 -65.8549C442.931 -72.1659 430.304 -79.3038 418.094 -86.2078C404.258 -94.0298 389.951 -102.119 375.387 -109.061C353.429 -119.527 321.202 -131.425 292.382 -128.691L292.287 -129.686C321.342 -132.447 353.746 -120.484 375.818 -109.963C390.414 -103.006 404.736 -94.9088 418.586 -87.0778C430.785 -80.1808 443.399 -73.0498 456.111 -66.7498C503.609 -43.1828 556.84 -28.8078 614.329 -24.0238C632.995 -22.4878 652.178 -21.9528 670.729 -21.4368C683.857 -21.0708 697.432 -20.6928 710.92 -19.9648C749.864 -17.8708 792.635 -12.4678 841.676 -3.44884C851.947 -1.56784 862.34 0.432153 873.449 2.66615C903.539 8.73415 933.342 15.4562 966.39 22.9812C1065.42 45.3752 1177.67 70.7582 1278.95 119.21L1278.52 120.112Z" fill="url(#paint31_linear_40_35)"/>
<path d="M1278.81 104.402C1181.33 55.9102 1071.11 32.1442 966.583 11.9582C940.956 6.97418 907.15 0.518174 872.914 -5.21883C862.007 -7.04183 851.259 -8.76483 840.967 -10.3428C792.074 -17.8718 749.364 -22.6428 710.396 -24.9288C699.221 -25.5858 687.948 -26.0738 677.044 -26.5438C656.332 -27.4388 634.915 -28.3638 614.113 -30.4848C556.489 -36.4058 503.5 -51.5608 456.62 -75.5288C444.913 -81.5068 433.294 -88.1958 422.057 -94.6658C407.463 -103.069 392.372 -111.757 376.889 -119.004C345.75 -133.577 316.087 -139.584 293.371 -135.919L293.212 -136.906C309.421 -139.52 337.172 -138.695 377.313 -119.909C392.835 -112.644 407.944 -103.945 422.557 -95.5308C433.783 -89.0668 445.391 -82.3838 457.075 -76.4178C503.844 -52.5068 556.714 -37.3868 614.215 -31.4788C634.988 -29.3608 656.389 -28.4368 677.087 -27.5418C687.994 -27.0708 699.273 -26.5838 710.454 -25.9258C749.455 -23.6388 792.195 -18.8638 841.119 -11.3298C851.414 -9.75183 862.168 -8.02683 873.079 -6.20383C907.327 -0.465827 941.14 5.99218 966.773 10.9782C1071.37 31.1772 1181.66 54.9612 1279.25 103.508L1278.81 104.402Z" fill="url(#paint32_linear_40_35)"/>
<path d="M1279.09 88.6912C1179.12 37.0142 1065.58 15.7932 966.999 -0.0408173C933.135 -5.51882 902.25 -10.1128 872.578 -14.0858C861.81 -15.5238 850.997 -16.9148 840.439 -18.2218C792.021 -24.2428 749.33 -28.3878 709.925 -30.8908C701.906 -31.4018 693.797 -31.8628 685.953 -32.3088C662.239 -33.6578 637.718 -35.0528 613.979 -37.9418C556.344 -44.9998 503.721 -60.9008 457.574 -85.2018C446.773 -90.8838 436.041 -97.1838 425.662 -103.277C410.432 -112.218 394.682 -121.464 378.392 -128.947C347.143 -143.302 317.299 -148.346 294.361 -143.15L294.14 -144.126C317.294 -149.37 347.362 -144.301 378.809 -129.856C395.145 -122.351 410.916 -113.093 426.168 -104.139C436.537 -98.0518 447.259 -91.7578 458.04 -86.0868C504.08 -61.8418 556.587 -45.9778 614.102 -38.9348C637.809 -36.0488 662.314 -34.6558 686.012 -33.3068C693.856 -32.8608 701.967 -32.3988 709.989 -31.8888C749.415 -29.3838 792.126 -25.2378 840.563 -19.2138C851.124 -17.9068 861.939 -16.5148 872.711 -15.0768C902.392 -11.1028 933.286 -6.50782 967.158 -1.02782C1065.81 14.8192 1179.45 36.0592 1279.55 87.8032L1279.09 88.6912Z" fill="url(#paint33_linear_40_35)"/>
<path d="M1279.38 72.9801C1182.72 21.0981 1072.32 1.45611 967.414 -12.0409C936.84 -16.0019 904.82 -19.6739 872.242 -22.9539C861.809 -24.0009 850.932 -25.0609 839.912 -26.1019C794.378 -30.4279 750.485 -34.0449 709.454 -36.8549C706.035 -37.0899 702.621 -37.3199 699.212 -37.5509C671.046 -39.4549 641.921 -41.4249 613.848 -45.4029C556.203 -53.6049 503.946 -70.2509 458.527 -94.8789C448.527 -100.297 438.582 -106.255 428.963 -112.018C413.198 -121.462 396.898 -131.229 379.893 -138.893C348.526 -153.032 318.499 -157.113 295.348 -150.386L295.069 -151.346C318.45 -158.139 348.722 -154.04 380.305 -139.805C397.363 -132.116 413.689 -122.335 429.478 -112.875C439.087 -107.118 449.023 -101.165 459.004 -95.7579C504.318 -71.1869 556.464 -54.5789 613.989 -46.3939C642.025 -42.4199 669.837 -40.5399 699.28 -38.5499C702.69 -38.3199 706.104 -38.0889 709.523 -37.8539C750.563 -35.0439 794.464 -31.4259 840.006 -27.0989C851.028 -26.0579 861.907 -24.9979 872.342 -23.9509C904.93 -20.6699 936.959 -16.9969 967.542 -13.0339C1072.54 0.47511 1183.05 20.1381 1279.85 72.0971L1279.38 72.9801Z" fill="url(#paint34_linear_40_35)"/>
<path d="M1279.67 57.2702C1181.94 2.82819 1067.19 -14.3838 967.83 -24.0398C938.935 -26.8658 908.455 -29.3388 871.906 -31.8208C861.124 -32.5508 850.282 -33.2658 839.384 -33.9808L817.481 -35.4188C781.938 -37.7488 745.184 -40.1578 708.984 -42.8168C678.172 -45.0828 645.436 -47.7248 613.716 -52.8598C556.063 -62.2158 504.171 -79.6078 459.481 -104.551C450.191 -109.733 440.946 -115.391 432.004 -120.862C415.795 -130.781 399.033 -141.038 381.396 -148.835C349.901 -162.757 319.692 -165.875 296.333 -157.618L296 -158.56C319.602 -166.904 350.073 -163.775 381.8 -149.749C399.498 -141.925 416.288 -131.651 432.526 -121.715C441.459 -116.249 450.696 -110.596 459.968 -105.424C504.556 -80.5378 556.338 -63.1848 613.876 -53.8468C645.556 -48.7178 678.269 -46.0778 709.059 -43.8138C745.254 -41.1548 782.006 -38.7468 817.547 -36.4168L839.451 -34.9788C850.349 -34.2648 861.191 -33.5488 871.975 -32.8188C908.534 -30.3358 939.023 -27.8628 967.927 -25.0348C1033.58 -18.6548 1083.22 -11.0058 1128.87 -0.235809C1186.79 13.4272 1236.27 31.9522 1280.15 56.3962L1279.67 57.2702Z" fill="url(#paint35_linear_40_35)"/>
<path d="M1279.95 41.5591C1181.84 -15.1309 1067.32 -29.4809 968.244 -36.0399C933.795 -38.3319 900.043 -39.6759 871.57 -40.6889L865.511 -40.9039C856.658 -41.2169 847.772 -41.5319 838.857 -41.8609C797.355 -43.3979 752.839 -45.2999 708.513 -48.7789C670.097 -51.7959 640.82 -55.3539 613.582 -60.3179C555.112 -70.9849 505.017 -88.6189 460.433 -114.225C451.78 -119.194 443.161 -124.584 434.826 -129.797C418.245 -140.167 401.1 -150.889 382.897 -158.779C340.226 -177.272 310.961 -170.524 297.315 -164.853L296.931 -165.777C310.724 -171.506 340.284 -178.337 383.294 -159.697C401.566 -151.778 418.744 -141.035 435.355 -130.646C443.683 -125.438 452.293 -120.053 460.931 -115.093C505.414 -89.5449 555.406 -71.9489 613.762 -61.3029C640.964 -56.3459 670.211 -52.7909 708.591 -49.7779C752.9 -46.2999 797.403 -44.3989 838.894 -42.8609C847.808 -42.5329 856.695 -42.2179 865.546 -41.9049L871.606 -41.6899C900.086 -40.6769 933.848 -39.3329 968.311 -37.0399C1067.5 -30.4729 1182.16 -16.1019 1280.45 40.6911L1279.95 41.5591Z" fill="url(#paint36_linear_40_35)"/>
<path d="M1280.24 25.8481C1226.08 -6.59089 1161.66 -27.7069 1083.29 -38.7069C1015.19 -48.2639 944.127 -49.2919 871.234 -49.5569C795.092 -49.8329 726.571 -50.8169 659.045 -60.0859C580.457 -70.8739 515.803 -91.7469 461.388 -123.898C453.306 -128.674 445.25 -133.825 437.46 -138.807C420.573 -149.606 403.111 -160.773 384.401 -168.72C341.548 -186.922 312.062 -178.642 298.298 -172.087L297.868 -172.989C311.781 -179.617 341.576 -187.996 384.791 -169.641C403.579 -161.661 421.076 -150.471 437.998 -139.649C445.781 -134.672 453.829 -129.525 461.896 -124.759C516.194 -92.6769 580.727 -71.8459 659.18 -61.0759C726.646 -51.8149 795.132 -50.8319 871.238 -50.5559C944.166 -50.2909 1015.27 -49.2619 1083.42 -39.6959C1161.93 -28.6769 1226.48 -7.51689 1280.75 24.9921L1280.24 25.8481Z" fill="url(#paint37_linear_40_35)"/>
</g>
</g>
<defs>
<linearGradient id="paint0_linear_40_35" x1="513.306" y1="890.69" x2="686.694" y2="-90.6898" gradientUnits="userSpaceOnUse">
<stop offset="0.00031973" stop-color="#F5F5F5"/>
<stop offset="0.9385" stop-color="#E8F5FF"/>
</linearGradient>
<linearGradient id="paint1_linear_40_35" x1="-12.6289" y1="699.198" x2="1190.59" y2="699.198" gradientUnits="userSpaceOnUse">
<stop offset="0.0614" stop-color="#234FBD"/>
<stop offset="1" stop-color="#D7EDFD" stop-opacity="0"/>
</linearGradient>
<linearGradient id="paint2_linear_40_35" x1="-10.4722" y1="722.253" x2="1193.05" y2="722.253" gradientUnits="userSpaceOnUse">
<stop offset="0.0614" stop-color="#234FBD"/>
<stop offset="1" stop-color="#D7EDFD" stop-opacity="0"/>
</linearGradient>
<linearGradient id="paint3_linear_40_35" x1="-8.2407" y1="745.238" x2="1195.52" y2="745.238" gradientUnits="userSpaceOnUse">
<stop offset="0.0614" stop-color="#234FBD"/>
<stop offset="1" stop-color="#D7EDFD" stop-opacity="0"/>
</linearGradient>
<linearGradient id="paint4_linear_40_35" x1="-6.0098" y1="767.64" x2="1198" y2="767.64" gradientUnits="userSpaceOnUse">
<stop offset="0.0614" stop-color="#ABE1FF"/>
<stop offset="1" stop-color="#D7EDFD" stop-opacity="0"/>
</linearGradient>
<linearGradient id="paint5_linear_40_35" x1="-3.7783" y1="781.176" x2="1200.47" y2="781.176" gradientUnits="userSpaceOnUse">
<stop offset="0.0614" stop-color="#ABE1FF"/>
<stop offset="1" stop-color="#D7EDFD" stop-opacity="0"/>
</linearGradient>
<linearGradient id="paint6_linear_40_35" x1="-1.5469" y1="794.637" x2="1202.94" y2="794.637" gradientUnits="userSpaceOnUse">
<stop offset="0.0614" stop-color="#234FBD"/>
<stop offset="1" stop-color="#D7EDFD" stop-opacity="0"/>
</linearGradient>
<linearGradient id="paint7_linear_40_35" x1="0.6846" y1="808.053" x2="1205.42" y2="808.053" gradientUnits="userSpaceOnUse">
<stop offset="0.0614" stop-color="#ABE1FF"/>
<stop offset="1" stop-color="#D7EDFD" stop-opacity="0"/>
</linearGradient>
<linearGradient id="paint8_linear_40_35" x1="2.9155" y1="821.421" x2="1207.89" y2="821.421" gradientUnits="userSpaceOnUse">
<stop offset="0.0614" stop-color="#ABE1FF"/>
<stop offset="1" stop-color="#D7EDFD" stop-opacity="0"/>
</linearGradient>
<linearGradient id="paint9_linear_40_35" x1="5.147" y1="834.729" x2="1210.37" y2="834.729" gradientUnits="userSpaceOnUse">
<stop offset="0.0614" stop-color="#ABE1FF"/>
<stop offset="1" stop-color="#D7EDFD" stop-opacity="0"/>
</linearGradient>
<linearGradient id="paint10_linear_40_35" x1="7.3784" y1="847.965" x2="1212.84" y2="847.965" gradientUnits="userSpaceOnUse">
<stop offset="0.0614" stop-color="#ABE1FF"/>
<stop offset="1" stop-color="#D7EDFD" stop-opacity="0"/>
</linearGradient>
<linearGradient id="paint11_linear_40_35" x1="593.779" y1="952.54" x2="593.779" y2="724.405" gradientUnits="userSpaceOnUse">
<stop offset="0.061" stop-color="#234FBD"/>
<stop offset="1" stop-color="#234FBD"/>
</linearGradient>
<linearGradient id="paint12_linear_40_35" x1="418.325" y1="661.574" x2="1200.49" y2="661.574" gradientUnits="userSpaceOnUse">
<stop stop-color="#D7EDFD" stop-opacity="0"/>
<stop offset="0.9385" stop-color="#3C90D6"/>
</linearGradient>
<linearGradient id="paint13_linear_40_35" x1="-8.6795" y1="690.393" x2="793.079" y2="690.393" gradientUnits="userSpaceOnUse">
<stop offset="0.0614" stop-color="#ABE1FF"/>
<stop offset="1" stop-color="#D7EDFD" stop-opacity="0"/>
</linearGradient>
<linearGradient id="paint14_linear_40_35" x1="600" y1="135.797" x2="600" y2="-39.6696" gradientUnits="userSpaceOnUse">
<stop stop-color="#D7EDFD" stop-opacity="0"/>
<stop offset="0.9389" stop-color="#3087CF"/>
</linearGradient>
<linearGradient id="paint15_linear_40_35" x1="-9.4763" y1="155.825" x2="829.981" y2="155.825" gradientUnits="userSpaceOnUse">
<stop offset="0.0614" stop-color="#234FBD"/>
<stop offset="1" stop-color="#D7EDFD" stop-opacity="0"/>
</linearGradient>
<linearGradient id="paint16_linear_40_35" x1="277.6" y1="167.299" x2="1274.45" y2="167.299" gradientUnits="userSpaceOnUse">
<stop stop-color="#D7EDFD" stop-opacity="0"/>
<stop offset="0.9382" stop-color="#19ADFF"/>
</linearGradient>
<linearGradient id="paint17_linear_40_35" x1="278.574" y1="155.825" x2="1274.75" y2="155.825" gradientUnits="userSpaceOnUse">
<stop stop-color="#D7EDFD" stop-opacity="0"/>
<stop offset="0.9382" stop-color="#19ADFF"/>
</linearGradient>
<linearGradient id="paint18_linear_40_35" x1="279.549" y1="144.35" x2="1275.05" y2="144.35" gradientUnits="userSpaceOnUse">
<stop stop-color="#D7EDFD" stop-opacity="0"/>
<stop offset="0.9382" stop-color="#19ADFF"/>
</linearGradient>
<linearGradient id="paint19_linear_40_35" x1="280.525" y1="132.875" x2="1275.35" y2="132.875" gradientUnits="userSpaceOnUse">
<stop stop-color="#D7EDFD" stop-opacity="0"/>
<stop offset="0.9382" stop-color="#19ADFF"/>
</linearGradient>
<linearGradient id="paint20_linear_40_35" x1="281.504" y1="121.4" x2="1275.65" y2="121.4" gradientUnits="userSpaceOnUse">
<stop stop-color="#D7EDFD" stop-opacity="0"/>
<stop offset="0.9382" stop-color="#19ADFF"/>
</linearGradient>
<linearGradient id="paint21_linear_40_35" x1="282.485" y1="109.925" x2="1275.95" y2="109.925" gradientUnits="userSpaceOnUse">
<stop stop-color="#D7EDFD" stop-opacity="0"/>
<stop offset="0.9382" stop-color="#19ADFF"/>
</linearGradient>
<linearGradient id="paint22_linear_40_35" x1="283.469" y1="98.4509" x2="1276.25" y2="98.4509" gradientUnits="userSpaceOnUse">
<stop stop-color="#D7EDFD" stop-opacity="0"/>
<stop offset="0.9382" stop-color="#19ADFF"/>
</linearGradient>
<linearGradient id="paint23_linear_40_35" x1="284.454" y1="86.9765" x2="1276.55" y2="86.9765" gradientUnits="userSpaceOnUse">
<stop stop-color="#D7EDFD" stop-opacity="0"/>
<stop offset="0.9382" stop-color="#19ADFF"/>
</linearGradient>
<linearGradient id="paint24_linear_40_35" x1="285.441" y1="75.5026" x2="1276.85" y2="75.5026" gradientUnits="userSpaceOnUse">
<stop stop-color="#D7EDFD" stop-opacity="0"/>
<stop offset="0.9382" stop-color="#19ADFF"/>
</linearGradient>
<linearGradient id="paint25_linear_40_35" x1="286.43" y1="64.0296" x2="1277.15" y2="64.0296" gradientUnits="userSpaceOnUse">
<stop stop-color="#D7EDFD" stop-opacity="0"/>
<stop offset="0.9382" stop-color="#19ADFF"/>
</linearGradient>
<linearGradient id="paint26_linear_40_35" x1="287.421" y1="52.5575" x2="1277.45" y2="52.5575" gradientUnits="userSpaceOnUse">
<stop stop-color="#D7EDFD" stop-opacity="0"/>
<stop offset="0.9382" stop-color="#19ADFF"/>
</linearGradient>
<linearGradient id="paint27_linear_40_35" x1="288.412" y1="41.0867" x2="1277.75" y2="41.0867" gradientUnits="userSpaceOnUse">
<stop stop-color="#D7EDFD" stop-opacity="0"/>
<stop offset="0.9382" stop-color="#19ADFF"/>
</linearGradient>
<linearGradient id="paint28_linear_40_35" x1="289.405" y1="29.6163" x2="1278.05" y2="29.6163" gradientUnits="userSpaceOnUse">
<stop stop-color="#D7EDFD" stop-opacity="0"/>
<stop offset="0.9382" stop-color="#19ADFF"/>
</linearGradient>
<linearGradient id="paint29_linear_40_35" x1="290.398" y1="18.1478" x2="1278.35" y2="18.1478" gradientUnits="userSpaceOnUse">
<stop stop-color="#D7EDFD" stop-opacity="0"/>
<stop offset="0.9382" stop-color="#19ADFF"/>
</linearGradient>
<linearGradient id="paint30_linear_40_35" x1="291.363" y1="6.6619" x2="1278.65" y2="6.6619" gradientUnits="userSpaceOnUse">
<stop stop-color="#D7EDFD" stop-opacity="0"/>
<stop offset="0.9382" stop-color="#19ADFF"/>
</linearGradient>
<linearGradient id="paint31_linear_40_35" x1="292.287" y1="-4.98796" x2="1278.95" y2="-4.98796" gradientUnits="userSpaceOnUse">
<stop stop-color="#D7EDFD" stop-opacity="0"/>
<stop offset="0.9382" stop-color="#19ADFF"/>
</linearGradient>
<linearGradient id="paint32_linear_40_35" x1="293.212" y1="-16.7965" x2="1279.25" y2="-16.7965" gradientUnits="userSpaceOnUse">
<stop stop-color="#D7EDFD" stop-opacity="0"/>
<stop offset="0.9382" stop-color="#19ADFF"/>
</linearGradient>
<linearGradient id="paint33_linear_40_35" x1="294.14" y1="-28.7247" x2="1279.55" y2="-28.7247" gradientUnits="userSpaceOnUse">
<stop stop-color="#D7EDFD" stop-opacity="0"/>
<stop offset="0.9382" stop-color="#19ADFF"/>
</linearGradient>
<linearGradient id="paint34_linear_40_35" x1="295.068" y1="-40.7818" x2="1279.85" y2="-40.7818" gradientUnits="userSpaceOnUse">
<stop stop-color="#D7EDFD" stop-opacity="0"/>
<stop offset="0.9382" stop-color="#19ADFF"/>
</linearGradient>
<linearGradient id="paint35_linear_40_35" x1="295.999" y1="-52.9343" x2="1280.15" y2="-52.9343" gradientUnits="userSpaceOnUse">
<stop stop-color="#D7EDFD" stop-opacity="0"/>
<stop offset="0.9382" stop-color="#19ADFF"/>
</linearGradient>
<linearGradient id="paint36_linear_40_35" x1="296.932" y1="-65.1585" x2="1280.45" y2="-65.1585" gradientUnits="userSpaceOnUse">
<stop stop-color="#D7EDFD" stop-opacity="0"/>
<stop offset="0.9382" stop-color="#19ADFF"/>
</linearGradient>
<linearGradient id="paint37_linear_40_35" x1="297.867" y1="-77.4642" x2="1280.75" y2="-77.4642" gradientUnits="userSpaceOnUse">
<stop stop-color="#D7EDFD" stop-opacity="0"/>
<stop offset="0.9382" stop-color="#19ADFF"/>
</linearGradient>
<clipPath id="clip0_40_35">
<rect width="1200" height="800" fill="white"/>
</clipPath>
</defs>
</svg>
