<svg width="100" height="100" viewBox="0 0 100 100" fill="none" xmlns="http://www.w3.org/2000/svg">
<path d="M50 76.875C22.775 76.875 0.625 64.8187 0.625 50C0.625 35.1813 22.775 23.125 50 23.125C77.225 23.125 99.375 35.1813 99.375 50C99.375 64.8187 77.225 76.875 50 76.875Z" fill="#01579B"/>
<path d="M50 23.75C76.8812 23.75 98.75 35.5262 98.75 50C98.75 64.4738 76.8812 76.25 50 76.25C23.1188 76.25 1.25 64.4738 1.25 50C1.25 35.5262 23.1188 23.75 50 23.75ZM50 22.5C22.3863 22.5 0 34.8125 0 50C0 65.1875 22.3863 77.5 50 77.5C77.6137 77.5 100 65.1875 100 50C100 34.8125 77.6137 22.5 50 22.5Z" fill="black"/>
<path d="M31.39 42.5C33.5462 42.5 35.4075 43.2775 36.495 44.6325C37.4312 45.8 37.7213 47.3463 37.33 49.1038C36.2788 53.8425 34.2437 55 26.9625 55H21.7875L23.975 42.5H31.39ZM31.39 40H21.875L17.5 65H20L21.32 57.5H26.9637C34.2925 57.5 38.28 56.3687 39.7712 49.645C41.0525 43.87 36.795 40 31.39 40ZM76.39 42.5C78.5462 42.5 80.4075 43.2775 81.495 44.6325C82.4312 45.8 82.7212 47.3463 82.33 49.1038C81.2787 53.8425 79.2437 55 71.9625 55H66.7875L68.975 42.5H76.39ZM76.39 40H66.875L62.5 65H65L66.32 57.5H71.9637C79.2925 57.5 83.28 56.3687 84.7713 49.645C86.0525 43.87 81.795 40 76.39 40Z" fill="white"/>
<path d="M61.34 41.515C60.2412 40.435 58.305 40 55.4175 40H48.495L50 32.5H47.375L42.5 57.5H44.9875L47.9725 42.5H48.4963H55.4187C58.3412 42.5 59.2862 43 59.5875 43.2963C60.0162 43.7188 60.1175 44.8288 59.8588 46.25L57.65 57.5H60.2825L62.315 46.7125C62.7488 44.3275 62.42 42.5775 61.34 41.515Z" fill="white"/>
</svg>
