<svg width="100" height="100" viewBox="0 0 100 100" fill="none" xmlns="http://www.w3.org/2000/svg">
<path d="M77.5333 24.5416C77.4854 24.1021 77.0937 23.9062 76.8021 23.9062C76.5104 23.9062 70.1145 23.4187 70.1145 23.4187C70.1145 23.4187 65.6729 18.9771 65.1354 18.5375C64.6479 18.05 63.7187 18.1958 63.3291 18.2937C63.2812 18.2937 62.352 18.5875 60.8395 19.075C59.327 14.7291 56.7396 10.775 52.1021 10.775H51.6625C50.3896 9.11456 48.7312 8.33331 47.3646 8.33331C36.625 8.33331 31.45 21.7583 29.8395 28.5937C25.6416 29.9125 22.6625 30.7896 22.3208 30.9375C19.977 31.6687 19.9291 31.7187 19.6354 33.9146C19.3916 35.575 13.2896 82.7812 13.2896 82.7812L60.7896 91.6666L86.5666 86.1021C86.6145 86.0041 77.5833 24.9812 77.5333 24.5416ZM58.2021 19.7562C57.0312 20.0979 55.6146 20.5375 54.2 21.025V20.1479C54.2 17.5125 53.8583 15.3646 53.2229 13.6541C55.6625 13.9479 57.1771 16.6333 58.2021 19.7562ZM50.2437 14.1916C50.8791 15.8521 51.3187 18.1958 51.3187 21.4166V21.9041C48.6833 22.7333 45.9 23.5646 43.0187 24.4916C44.6291 18.3416 47.7062 15.3146 50.2437 14.1916ZM47.1187 11.1646C47.6062 11.1646 48.0958 11.3604 48.4854 11.6521C45.0187 13.2625 41.3583 17.3146 39.8437 25.5166C37.55 26.2479 35.3521 26.8833 33.2541 27.5666C35.0125 21.3187 39.4062 11.1646 47.1187 11.1646Z" fill="#7CB342"/>
<path d="M76.8021 23.8083C76.5083 23.8083 70.1146 23.3208 70.1146 23.3208C70.1146 23.3208 65.6729 18.8791 65.1354 18.4396C64.9375 18.2437 64.6938 18.1458 64.5 18.1458L60.9354 91.6666L86.7125 86.1021C86.7125 86.1021 77.6813 24.9812 77.6313 24.5416C77.4354 24.1021 77.0938 23.9062 76.8021 23.8083Z" fill="#558B2F"/>
<path d="M51.65 38.7354L48.5771 48.0041C48.5771 48.0041 45.7917 46.5146 42.4792 46.5146C37.5334 46.5146 37.2938 49.6354 37.2938 50.4041C37.2938 54.6291 48.3375 56.2625 48.3375 66.2021C48.3375 74.0291 43.3917 79.0708 36.7167 79.0708C28.65 79.0708 24.6167 74.0771 24.6167 74.0771L26.7771 66.9708C26.7771 66.9708 31.0021 70.6208 34.5563 70.6208C36.9084 70.6208 37.8688 68.7958 37.8688 67.4521C37.8688 61.9291 28.8417 61.6896 28.8417 52.5666C28.8417 44.9312 34.3167 37.5375 45.4084 37.5375C49.5354 37.4875 51.65 38.7354 51.65 38.7354Z" fill="white"/>
</svg>
