<svg width="100" height="100" viewBox="0 0 100 100" fill="none" xmlns="http://www.w3.org/2000/svg">
<path d="M50 8.4375C38.9769 8.4375 28.4054 12.8164 20.6109 20.6109C12.8164 28.4054 8.4375 38.9769 8.4375 50C8.4375 61.0231 12.8164 71.5946 20.6109 79.3891C28.4054 87.1836 38.9769 91.5625 50 91.5625C61.0231 91.5625 71.5946 87.1836 79.3891 79.3891C87.1836 71.5946 91.5625 61.0231 91.5625 50C91.5625 38.9769 87.1836 28.4054 79.3891 20.6109C71.5946 12.8164 61.0231 8.4375 50 8.4375Z" fill="white"/>
<path d="M16.6687 50C16.6687 63.2 24.3354 74.5959 35.4562 80L19.552 36.4334C17.7041 40.5813 16.6687 45.1584 16.6687 50ZM72.5083 48.3209C72.5083 44.2021 70.2937 41.3417 69.0291 39.1292C67.3354 36.3604 65.7458 34.0521 65.7458 31.3125C65.7458 28.2604 68.8104 25.3959 72.0812 25.3959C72.2291 25.3959 72.3625 25.4084 72.5104 25.4125C66.5854 19.9667 58.6833 16.6667 50.002 16.6667C38.7749 16.6667 28.85 22.2209 22.8104 30.7271C23.2854 30.8813 23.45 30.8084 24.0833 30.8084C27.5604 30.8084 32.9666 30.3917 32.9666 30.3917C34.7583 30.2729 34.977 32.9167 33.1729 33.1334C33.1729 33.1334 31.3729 33.3521 29.3645 33.45L41.7208 70.4875L49.0124 48.6104L43.5895 33.5104C41.7958 33.4146 40.0916 33.1938 40.0916 33.1938C38.2958 33.0771 38.5041 30.3292 40.2958 30.4521C40.2958 30.4521 45.8124 30.8688 49.0812 30.8688C52.5708 30.8688 57.9645 30.4521 57.9645 30.4521C59.7583 30.3334 59.9749 32.9771 58.1812 33.1938C58.1812 33.1938 56.3687 33.4125 54.3645 33.5104L66.6375 70.1979L69.9687 59.1021C71.6645 54.7688 72.5083 51.1854 72.5083 48.3209ZM50.5854 52.9084L40.5854 81.975C43.577 82.8625 46.7312 83.3334 50.002 83.3334C53.8791 83.3334 57.6041 82.6583 61.077 81.4438C60.9937 81.2958 60.8999 81.1459 60.8312 80.9854L50.5854 52.9084ZM79.2562 33.9959C79.4041 35.0584 79.4812 36.2021 79.4812 37.4229C79.4812 40.8146 78.8437 44.6125 76.9416 49.375L66.7645 78.8229C76.677 73.0479 83.3333 62.2959 83.3333 50C83.3333 44.2063 81.852 38.7584 79.2562 33.9959Z" fill="#01579B"/>
<path d="M8.33337 50C8.33337 72.9666 27.0209 91.6666 49.998 91.6666C72.9792 91.6666 91.6667 72.9666 91.6667 50C91.6667 27.0333 72.9792 8.33331 50 8.33331C27.0209 8.33331 8.33337 27.0333 8.33337 50ZM12.4896 50C12.4896 29.325 29.3105 12.5021 49.998 12.5021C70.6855 12.5021 87.5105 29.325 87.5105 50C87.5105 70.675 70.6855 87.5021 50 87.5021C29.3167 87.5021 12.4896 70.675 12.4896 50Z" fill="#01579B"/>
</svg>
